0
SECTION
2
HEADER
9
$INSUNITS
70
4
9
$ACADVER
1
AC1014
9
$HANDSEED
5
FFFF
0
ENDSEC
0
SECTION
2
TABLES
0
TABLE
2
VPORT
5
8
100
AcDbSymbolTable
0
ENDTAB
0
TABLE
2
LTYPE
5
5
100
AcDbSymbolTable
0
LTYPE
5
14
100
AcDbSymbolTableRecord
100
AcDbLinetypeTableRecord
2
BYBLOCK
70
0
0
LTYPE
5
15
100
AcDbSymbolTableRecord
100
AcDbLinetypeTableRecord
2
BYLAYER
70
0
0
LTYPE
5
16
100
AcDbSymbolTableRecord
100
AcDbLinetypeTableRecord
2
DASHED
70
0
3
Dashed __ __ __ __ __ __ __ __ __ __ __ __ __ _
72
65
73
2
40
0.75
49
0.5
74
0
49
-0.25
74
0
0
ENDTAB
0
TABLE
2
LAYER
5
2
100
AcDbSymbolTable
70
3
0
LAYER
5
50
100
AcDbSymbolTableRecord
100
AcDbLayerTableRecord
2
1
70
0
62
7
6
DASHED
0
LAYER
5
51
100
AcDbSymbolTableRecord
100
AcDbLayerTableRecord
2
0
70
0
62
7
6
CONTINUOUS
0
ENDTAB
0
TABLE
2
STYLE
5
3
100
AcDbSymbolTable
70
1
0
STYLE
5
11
100
AcDbSymbolTableRecord
100
AcDbTextStyleTableRecord
2
STANDARD
70
0
0
ENDTAB
0
TABLE
2
VIEW
5
6
100
AcDbSymbolTable
70
0
0
ENDTAB
0
TABLE
2
UCS
5
7
100
AcDbSymbolTable
70
0
0
ENDTAB
0
TABLE
2
APPID
5
9
100
AcDbSymbolTable
70
2
0
APPID
5
12
100
AcDbSymbolTableRecord
100
AcDbRegAppTableRecord
2
ACAD
70
0
0
ENDTAB
0
TABLE
2
DIMSTYLE
5
A
100
AcDbSymbolTable
70
1
0
ENDTAB
0
TABLE
2
BLOCK_RECORD
5
1
100
AcDbSymbolTable
70
1
0
BLOCK_RECORD
5
1F
100
AcDbSymbolTableRecord
100
AcDbBlockTableRecord
2
*MODEL_SPACE
0
BLOCK_RECORD
5
1B
100
AcDbSymbolTableRecord
100
AcDbBlockTableRecord
2
*PAPER_SPACE
0
ENDTAB
0
ENDSEC
0
SECTION
2
BLOCKS
0
BLOCK
5
20
100
AcDbEntity
100
AcDbBlockBegin
2
*MODEL_SPACE
0
ENDBLK
5
21
100
AcDbEntity
100
AcDbBlockEnd
0
BLOCK
5
1C
100
AcDbEntity
100
AcDbBlockBegin
2
*PAPER_SPACE
0
ENDBLK
5
1D
100
AcDbEntity
100
AcDbBlockEnd
0
ENDSEC
0
SECTION
2
ENTITIES
0
POINT
5
100
100
AcDbEntity
8
0
100
AcDbPoint
10
14.999992640356098
20
32.019321765535125
30
0
0
POINT
5
101
100
AcDbEntity
8
0
100
AcDbPoint
10
25.333325973689433
20
32.019321765535125
30
0
0
POINT
5
102
100
AcDbEntity
8
0
100
AcDbPoint
10
35.666659307022769
20
32.019321765535125
30
0
0
POINT
5
103
100
AcDbEntity
8
0
100
AcDbPoint
10
45.999992640356098
20
32.019321765535125
30
0
0
LWPOLYLINE
5
104
100
AcDbEntity
8
0
100
AcDbPolyline
90
6
70
1
43
0.0
10
14.278304692106246
20
33.269321959114002
10
13.556616743856404
20
32.019321765535125
10
14.278304692106254
20
30.769321571956255
10
15.721680588605944
20
30.769321571956255
10
16.443368536855793
20
32.019321765535132
10
15.721680588605944
20
33.269321959114002
0
LWPOLYLINE
5
105
100
AcDbEntity
8
0
100
AcDbPolyline
90
4
70
1
43
0.0
10
-33.000000491738319
20
41.500000610947609
10
61.000000908970833
20
41.500000610947609
10
61.000000908970833
20
22.500000610947602
10
-33.000000491738319
20
22.500000610947602
0
LWPOLYLINE
5
106
100
AcDbEntity
8
0
100
AcDbPolyline
90
6
70
1
43
0.0
10
14.278304692106246
20
27.269321959114002
10
13.556616743856404
20
26.019321765535125
10
14.278304692106254
20
24.769321571956255
10
15.721680588605944
20
24.769321571956255
10
16.443368536855793
20
26.019321765535128
10
15.721680588605944
20
27.269321959114002
0
LWPOLYLINE
5
107
100
AcDbEntity
8
0
100
AcDbPolyline
90
6
70
1
43
0.0
10
14.278304692106246
20
30.269321959114002
10
13.556616743856404
20
29.019321765535125
10
14.278304692106254
20
27.769321571956258
10
15.721680588605944
20
27.769321571956258
10
16.443368536855793
20
29.019321765535125
10
15.721680588605944
20
30.269321959114002
0
LWPOLYLINE
5
108
100
AcDbEntity
8
0
100
AcDbPolyline
90
6
70
1
43
0.0
10
14.278304692106246
20
36.269321959114002
10
13.556616743856404
20
35.019321765535125
10
14.278304692106254
20
33.769321571956255
10
15.721680588605944
20
33.769321571956255
10
16.443368536855793
20
35.019321765535132
10
15.721680588605944
20
36.269321959114002
0
LWPOLYLINE
5
109
100
AcDbEntity
8
0
100
AcDbPolyline
90
6
70
1
43
0.0
10
14.278304692106246
20
39.269321959114002
10
13.556616743856404
20
38.019321765535125
10
14.278304692106254
20
36.769321571956255
10
15.721680588605944
20
36.769321571956255
10
16.443368536855793
20
38.019321765535132
10
15.721680588605944
20
39.269321959114002
0
LWPOLYLINE
5
110
100
AcDbEntity
8
0
100
AcDbPolyline
90
6
70
1
43
0.0
10
16.876380903459566
20
37.769321959114002
10
16.154692955209722
20
36.519321765535125
10
16.87638090345957
20
35.269321571956255
10
18.319756799959261
20
35.269321571956255
10
19.041444748209109
20
36.519321765535125
10
18.319756799959261
20
37.769321959114002
0
LWPOLYLINE
5
111
100
AcDbEntity
8
0
100
AcDbPolyline
90
6
70
1
43
0.0
10
16.876380903459566
20
34.769321959113995
10
16.154692955209722
20
33.519321765535118
10
16.87638090345957
20
32.269321571956255
10
18.319756799959261
20
32.269321571956255
10
19.041444748209109
20
33.519321765535125
10
18.319756799959261
20
34.769321959113995
0
LWPOLYLINE
5
112
100
AcDbEntity
8
0
100
AcDbPolyline
90
6
70
1
43
0.0
10
16.876380903459566
20
31.769321959113999
10
16.154692955209722
20
30.519321765535121
10
16.87638090345957
20
29.269321571956255
10
18.319756799959261
20
29.269321571956255
10
19.041444748209109
20
30.519321765535132
10
18.319756799959261
20
31.769321959113999
0
LWPOLYLINE
5
113
100
AcDbEntity
8
0
100
AcDbPolyline
90
6
70
1
43
0.0
10
16.876380903459566
20
28.769321959114002
10
16.154692955209722
20
27.519321765535125
10
16.87638090345957
20
26.269321571956255
10
18.319756799959261
20
26.269321571956255
10
19.041444748209109
20
27.519321765535125
10
18.319756799959261
20
28.769321959114002
0
LWPOLYLINE
5
114
100
AcDbEntity
8
0
100
AcDbPolyline
90
6
70
1
43
0.0
10
16.876380903459566
20
25.769321959114002
10
16.154692955209722
20
24.519321765535125
10
16.87638090345957
20
23.269321571956255
10
18.319756799959261
20
23.269321571956255
10
19.041444748209109
20
24.519321765535125
10
18.319756799959261
20
25.769321959114002
0
LWPOLYLINE
5
115
100
AcDbEntity
8
0
100
AcDbPolyline
90
6
70
1
43
0.0
10
19.474457114812882
20
36.269321959114002
10
18.752769166563038
20
35.019321765535125
10
19.474457114812889
20
33.769321571956255
10
20.917833011312581
20
33.769321571956255
10
21.639520959562425
20
35.019321765535125
10
20.917833011312581
20
36.269321959114002
0
LWPOLYLINE
5
116
100
AcDbEntity
8
0
100
AcDbPolyline
90
6
70
1
43
0.0
10
19.474457114812882
20
33.269321959113995
10
18.752769166563038
20
32.019321765535118
10
19.474457114812889
20
30.769321571956251
10
20.917833011312581
20
30.769321571956251
10
21.639520959562425
20
32.019321765535132
10
20.917833011312581
20
33.269321959113995
0
LWPOLYLINE
5
117
100
AcDbEntity
8
0
100
AcDbPolyline
90
6
70
1
43
0.0
10
19.474457114812882
20
30.269321959113999
10
18.752769166563038
20
29.019321765535121
10
19.474457114812889
20
27.769321571956255
10
20.917833011312581
20
27.769321571956255
10
21.639520959562425
20
29.019321765535125
10
20.917833011312581
20
30.269321959113999
0
LWPOLYLINE
5
118
100
AcDbEntity
8
0
100
AcDbPolyline
90
6
70
1
43
0.0
10
19.474457114812882
20
27.269321959114002
10
18.752769166563038
20
26.019321765535125
10
19.474457114812889
20
24.769321571956255
10
20.917833011312581
20
24.769321571956255
10
21.639520959562425
20
26.019321765535125
10
20.917833011312581
20
27.269321959114002
0
LWPOLYLINE
5
119
100
AcDbEntity
8
0
100
AcDbPolyline
90
6
70
1
43
0.0
10
20.917833011312581
20
39.269321959113995
10
19.474457114812882
20
39.269321959113995
10
18.752769166563038
20
38.019321765535125
10
19.474457114812889
20
36.769321571956255
10
20.917833011312581
20
36.769321571956255
10
21.639520959562425
20
38.019321765535125
0
LWPOLYLINE
5
120
100
AcDbEntity
8
0
100
AcDbPolyline
90
6
70
1
43
0.0
10
16.154692955209722
20
39.519321765535125
10
16.87638090345957
20
38.269321571956255
10
18.319756799959261
20
38.269321571956255
10
19.041444748209109
20
39.519321765535125
10
18.319756799959261
20
40.769321959114002
10
16.876380903459566
20
40.769321959114002
0
LWPOLYLINE
5
121
100
AcDbEntity
8
0
100
AcDbPolyline
90
6
70
1
43
0.0
10
24.241444748209105
20
39.519321765535125
10
23.519756799959261
20
40.769321959114002
10
22.076380903459565
20
40.769321959114002
10
21.354692955209721
20
39.519321765535125
10
22.076380903459572
20
38.269321571956255
10
23.519756799959261
20
38.269321571956255
0
LWPOLYLINE
5
122
100
AcDbEntity
8
0
100
AcDbPolyline
90
6
70
1
43
0.0
10
21.354692955209721
20
36.519321765535125
10
22.076380903459572
20
35.269321571956255
10
23.519756799959261
20
35.269321571956255
10
24.241444748209105
20
36.519321765535125
10
23.519756799959261
20
37.769321959114002
10
22.076380903459565
20
37.769321959114002
0
LWPOLYLINE
5
123
100
AcDbEntity
8
0
100
AcDbPolyline
90
6
70
1
43
0.0
10
21.354692955209721
20
33.519321765535118
10
22.076380903459572
20
32.269321571956255
10
23.519756799959261
20
32.269321571956255
10
24.241444748209105
20
33.519321765535125
10
23.519756799959261
20
34.769321959113995
10
22.076380903459565
20
34.769321959113995
0
LWPOLYLINE
5
124
100
AcDbEntity
8
0
100
AcDbPolyline
90
6
70
1
43
0.0
10
21.354692955209721
20
30.519321765535121
10
22.076380903459572
20
29.269321571956255
10
23.519756799959261
20
29.269321571956255
10
24.241444748209105
20
30.519321765535132
10
23.519756799959261
20
31.769321959113999
10
22.076380903459565
20
31.769321959113999
0
LWPOLYLINE
5
125
100
AcDbEntity
8
0
100
AcDbPolyline
90
6
70
1
43
0.0
10
21.354692955209721
20
27.519321765535125
10
22.076380903459572
20
26.269321571956255
10
23.519756799959261
20
26.269321571956255
10
24.241444748209105
20
27.519321765535125
10
23.519756799959261
20
28.769321959114002
10
22.076380903459565
20
28.769321959114002
0
LWPOLYLINE
5
126
100
AcDbEntity
8
0
100
AcDbPolyline
90
6
70
1
43
0.0
10
21.354692955209721
20
24.519321765535125
10
22.076380903459572
20
23.269321571956255
10
23.519756799959261
20
23.269321571956255
10
24.241444748209105
20
24.519321765535125
10
23.519756799959261
20
25.769321959114002
10
22.076380903459565
20
25.769321959114002
0
LWPOLYLINE
5
127
100
AcDbEntity
8
0
100
AcDbPolyline
90
6
70
1
43
0.0
10
27.209714236792905
20
35.269321571956255
10
28.653090133292594
20
35.269321571956255
10
29.374778081542445
20
36.519321765535125
10
28.653090133292594
20
37.769321959114002
10
27.209714236792898
20
37.769321959114002
10
26.488026288543054
20
36.519321765535125
0
LWPOLYLINE
5
128
100
AcDbEntity
8
0
100
AcDbPolyline
90
6
70
1
43
0.0
10
23.889950077189738
20
26.019321765535125
10
24.611638025439589
20
24.769321571956255
10
26.055013921939278
20
24.769321571956255
10
26.776701870189122
20
26.019321765535128
10
26.055013921939278
20
27.269321959114002
10
24.611638025439582
20
27.269321959114002
0
LWPOLYLINE
5
129
100
AcDbEntity
8
0
100
AcDbPolyline
90
6
70
1
43
0.0
10
29.807790448146221
20
33.769321571956255
10
31.251166344645913
20
33.769321571956255
10
31.972854292895761
20
35.019321765535125
10
31.251166344645913
20
36.269321959114002
10
29.807790448146214
20
36.269321959114002
10
29.086102499896374
20
35.019321765535125
0
LWPOLYLINE
5
130
100
AcDbEntity
8
0
100
AcDbPolyline
90
6
70
1
43
0.0
10
32.409714236792908
20
38.269321571956255
10
33.853090133292596
20
38.269321571956255
10
34.574778081542441
20
39.519321765535125
10
33.853090133292596
20
40.769321959114002
10
32.409714236792901
20
40.769321959114002
10
31.688026288543057
20
39.519321765535125
0
LWPOLYLINE
5
131
100
AcDbEntity
8
0
100
AcDbPolyline
90
6
70
1
43
0.0
10
28.653090133292594
20
25.769321959114002
10
27.209714236792898
20
25.769321959114002
10
26.488026288543054
20
24.519321765535125
10
27.209714236792905
20
23.269321571956255
10
28.653090133292594
20
23.269321571956255
10
29.374778081542445
20
24.519321765535125
0
LWPOLYLINE
5
132
100
AcDbEntity
8
0
100
AcDbPolyline
90
6
70
1
43
0.0
10
24.611638025439589
20
27.769321571956258
10
26.055013921939278
20
27.769321571956258
10
26.776701870189122
20
29.019321765535125
10
26.055013921939278
20
30.269321959114002
10
24.611638025439582
20
30.269321959114002
10
23.889950077189738
20
29.019321765535125
0
LWPOLYLINE
5
133
100
AcDbEntity
8
0
100
AcDbPolyline
90
6
70
1
43
0.0
10
34.574778081542441
20
27.519321765535125
10
33.853090133292596
20
28.769321959114002
10
32.409714236792901
20
28.769321959114002
10
31.688026288543057
20
27.519321765535125
10
32.409714236792908
20
26.269321571956255
10
33.853090133292596
20
26.269321571956255
0
LWPOLYLINE
5
134
100
AcDbEntity
8
0
100
AcDbPolyline
90
6
70
1
43
0.0
10
26.488026288543054
20
30.519321765535121
10
27.209714236792905
20
29.269321571956255
10
28.653090133292594
20
29.269321571956255
10
29.374778081542445
20
30.519321765535132
10
28.653090133292594
20
31.769321959113999
10
27.209714236792898
20
31.769321959113999
0
LWPOLYLINE
5
135
100
AcDbEntity
8
0
100
AcDbPolyline
90
6
70
1
43
0.0
10
27.209714236792905
20
32.269321571956255
10
28.653090133292594
20
32.269321571956255
10
29.374778081542445
20
33.519321765535125
10
28.653090133292594
20
34.769321959113995
10
27.209714236792898
20
34.769321959113995
10
26.488026288543054
20
33.519321765535118
0
LWPOLYLINE
5
136
100
AcDbEntity
8
0
100
AcDbPolyline
90
6
70
1
43
0.0
10
34.574778081542441
20
30.519321765535132
10
33.853090133292596
20
31.769321959113999
10
32.409714236792901
20
31.769321959113999
10
31.688026288543057
20
30.519321765535121
10
32.409714236792908
20
29.269321571956255
10
33.853090133292596
20
29.269321571956255
0
LWPOLYLINE
5
137
100
AcDbEntity
8
0
100
AcDbPolyline
90
6
70
1
43
0.0
10
29.807790448146221
20
27.769321571956255
10
31.251166344645913
20
27.769321571956255
10
31.972854292895761
20
29.019321765535125
10
31.251166344645913
20
30.269321959113999
10
29.807790448146214
20
30.269321959113999
10
29.086102499896374
20
29.019321765535121
0
LWPOLYLINE
5
138
100
AcDbEntity
8
0
100
AcDbPolyline
90
6
70
1
43
0.0
10
29.086102499896374
20
26.019321765535125
10
29.807790448146221
20
24.769321571956255
10
31.251166344645913
20
24.769321571956255
10
31.972854292895761
20
26.019321765535125
10
31.251166344645913
20
27.269321959114002
10
29.807790448146214
20
27.269321959114002
0
LWPOLYLINE
5
139
100
AcDbEntity
8
0
100
AcDbPolyline
90
6
70
1
43
0.0
10
31.688026288543057
20
36.519321765535125
10
32.409714236792908
20
35.269321571956255
10
33.853090133292596
20
35.269321571956255
10
34.574778081542441
20
36.519321765535125
10
33.853090133292596
20
37.769321959114002
10
32.409714236792901
20
37.769321959114002
0
LWPOLYLINE
5
140
100
AcDbEntity
8
0
100
AcDbPolyline
90
6
70
1
43
0.0
10
26.055013921939278
20
33.269321959114002
10
24.611638025439582
20
33.269321959114002
10
23.889950077189738
20
32.019321765535125
10
24.611638025439589
20
30.769321571956255
10
26.055013921939278
20
30.769321571956255
10
26.776701870189122
20
32.019321765535132
0
LWPOLYLINE
5
141
100
AcDbEntity
8
0
100
AcDbPolyline
90
6
70
1
43
0.0
10
31.251166344645913
20
36.769321571956255
10
31.972854292895761
20
38.019321765535125
10
31.251166344645913
20
39.269321959113995
10
29.807790448146214
20
39.269321959113995
10
29.086102499896374
20
38.019321765535125
10
29.807790448146221
20
36.769321571956255
0
LWPOLYLINE
5
142
100
AcDbEntity
8
0
100
AcDbPolyline
90
6
70
1
43
0.0
10
26.055013921939278
20
36.269321959114002
10
24.611638025439582
20
36.269321959114002
10
23.889950077189738
20
35.019321765535125
10
24.611638025439589
20
33.769321571956255
10
26.055013921939278
20
33.769321571956255
10
26.776701870189122
20
35.019321765535132
0
LWPOLYLINE
5
143
100
AcDbEntity
8
0
100
AcDbPolyline
90
6
70
1
43
0.0
10
31.251166344645913
20
30.769321571956251
10
31.972854292895761
20
32.019321765535132
10
31.251166344645913
20
33.269321959113995
10
29.807790448146214
20
33.269321959113995
10
29.086102499896374
20
32.019321765535118
10
29.807790448146221
20
30.769321571956251
0
LWPOLYLINE
5
144
100
AcDbEntity
8
0
100
AcDbPolyline
90
6
70
1
43
0.0
10
28.653090133292594
20
40.769321959114002
10
27.209714236792898
20
40.769321959114002
10
26.488026288543054
20
39.519321765535125
10
27.209714236792905
20
38.269321571956255
10
28.653090133292594
20
38.269321571956255
10
29.374778081542445
20
39.519321765535125
0
LWPOLYLINE
5
145
100
AcDbEntity
8
0
100
AcDbPolyline
90
6
70
1
43
0.0
10
27.209714236792905
20
26.269321571956255
10
28.653090133292594
20
26.269321571956255
10
29.374778081542445
20
27.519321765535125
10
28.653090133292594
20
28.769321959114002
10
27.209714236792898
20
28.769321959114002
10
26.488026288543054
20
27.519321765535125
0
LWPOLYLINE
5
146
100
AcDbEntity
8
0
100
AcDbPolyline
90
6
70
1
43
0.0
10
24.611638025439582
20
39.269321959114002
10
23.889950077189738
20
38.019321765535125
10
24.611638025439589
20
36.769321571956255
10
26.055013921939278
20
36.769321571956255
10
26.776701870189122
20
38.019321765535132
10
26.055013921939278
20
39.269321959114002
0
LWPOLYLINE
5
147
100
AcDbEntity
8
0
100
AcDbPolyline
90
6
70
1
43
0.0
10
33.853090133292596
20
34.769321959113995
10
32.409714236792901
20
34.769321959113995
10
31.688026288543057
20
33.519321765535118
10
32.409714236792908
20
32.269321571956255
10
33.853090133292596
20
32.269321571956255
10
34.574778081542441
20
33.519321765535125
0
LWPOLYLINE
5
148
100
AcDbEntity
8
0
100
AcDbPolyline
90
6
70
1
43
0.0
10
32.409714236792908
20
23.269321571956255
10
33.853090133292596
20
23.269321571956255
10
34.574778081542441
20
24.519321765535125
10
33.853090133292596
20
25.769321959114002
10
32.409714236792901
20
25.769321959114002
10
31.688026288543057
20
24.519321765535125
0
LWPOLYLINE
5
149
100
AcDbEntity
8
0
100
AcDbPolyline
90
6
70
1
43
0.0
10
37.543047570126241
20
35.269321571956255
10
38.986423466625929
20
35.269321571956255
10
39.708111414875773
20
36.519321765535125
10
38.986423466625929
20
37.769321959114002
10
37.543047570126234
20
37.769321959114002
10
36.82135962187639
20
36.519321765535125
0
LWPOLYLINE
5
150
100
AcDbEntity
8
0
100
AcDbPolyline
90
6
70
1
43
0.0
10
34.223283410523074
20
26.019321765535125
10
34.944971358772925
20
24.769321571956255
10
36.388347255272613
20
24.769321571956255
10
37.110035203522457
20
26.019321765535128
10
36.388347255272613
20
27.269321959114002
10
34.944971358772918
20
27.269321959114002
0
LWPOLYLINE
5
151
100
AcDbEntity
8
0
100
AcDbPolyline
90
6
70
1
43
0.0
10
40.141123781479557
20
33.769321571956255
10
41.584499677979245
20
33.769321571956255
10
42.306187626229097
20
35.019321765535125
10
41.584499677979245
20
36.269321959114002
10
40.14112378147955
20
36.269321959114002
10
39.419435833229706
20
35.019321765535125
0
LWPOLYLINE
5
152
100
AcDbEntity
8
0
100
AcDbPolyline
90
6
70
1
43
0.0
10
42.743047570126237
20
38.269321571956255
10
44.186423466625932
20
38.269321571956255
10
44.908111414875776
20
39.519321765535125
10
44.186423466625932
20
40.769321959114002
10
42.743047570126237
20
40.769321959114002
10
42.021359621876393
20
39.519321765535125
0
LWPOLYLINE
5
153
100
AcDbEntity
8
0
100
AcDbPolyline
90
6
70
1
43
0.0
10
38.986423466625929
20
25.769321959114002
10
37.543047570126234
20
25.769321959114002
10
36.82135962187639
20
24.519321765535125
10
37.543047570126241
20
23.269321571956255
10
38.986423466625929
20
23.269321571956255
10
39.708111414875773
20
24.519321765535125
0
LWPOLYLINE
5
154
100
AcDbEntity
8
0
100
AcDbPolyline
90
6
70
1
43
0.0
10
34.944971358772925
20
27.769321571956258
10
36.388347255272613
20
27.769321571956258
10
37.110035203522457
20
29.019321765535125
10
36.388347255272613
20
30.269321959114002
10
34.944971358772918
20
30.269321959114002
10
34.223283410523074
20
29.019321765535125
0
LWPOLYLINE
5
155
100
AcDbEntity
8
0
100
AcDbPolyline
90
6
70
1
43
0.0
10
44.908111414875776
20
27.519321765535125
10
44.186423466625932
20
28.769321959114002
10
42.743047570126237
20
28.769321959114002
10
42.021359621876393
20
27.519321765535125
10
42.743047570126237
20
26.269321571956255
10
44.186423466625932
20
26.269321571956255
0
LWPOLYLINE
5
156
100
AcDbEntity
8
0
100
AcDbPolyline
90
6
70
1
43
0.0
10
36.82135962187639
20
30.519321765535121
10
37.543047570126241
20
29.269321571956255
10
38.986423466625929
20
29.269321571956255
10
39.708111414875773
20
30.519321765535132
10
38.986423466625929
20
31.769321959113999
10
37.543047570126234
20
31.769321959113999
0
LWPOLYLINE
5
157
100
AcDbEntity
8
0
100
AcDbPolyline
90
6
70
1
43
0.0
10
37.543047570126241
20
32.269321571956255
10
38.986423466625929
20
32.269321571956255
10
39.708111414875773
20
33.519321765535125
10
38.986423466625929
20
34.769321959113995
10
37.543047570126234
20
34.769321959113995
10
36.82135962187639
20
33.519321765535118
0
LWPOLYLINE
5
158
100
AcDbEntity
8
0
100
AcDbPolyline
90
6
70
1
43
0.0
10
44.908111414875776
20
30.519321765535132
10
44.186423466625932
20
31.769321959113999
10
42.743047570126237
20
31.769321959113999
10
42.021359621876393
20
30.519321765535121
10
42.743047570126237
20
29.269321571956255
10
44.186423466625932
20
29.269321571956255
0
LWPOLYLINE
5
159
100
AcDbEntity
8
0
100
AcDbPolyline
90
6
70
1
43
0.0
10
40.141123781479557
20
27.769321571956255
10
41.584499677979245
20
27.769321571956255
10
42.306187626229097
20
29.019321765535125
10
41.584499677979245
20
30.269321959113999
10
40.14112378147955
20
30.269321959113999
10
39.419435833229706
20
29.019321765535121
0
LWPOLYLINE
5
160
100
AcDbEntity
8
0
100
AcDbPolyline
90
6
70
1
43
0.0
10
39.419435833229706
20
26.019321765535125
10
40.141123781479557
20
24.769321571956255
10
41.584499677979245
20
24.769321571956255
10
42.306187626229097
20
26.019321765535125
10
41.584499677979245
20
27.269321959114002
10
40.14112378147955
20
27.269321959114002
0
LWPOLYLINE
5
161
100
AcDbEntity
8
0
100
AcDbPolyline
90
6
70
1
43
0.0
10
42.021359621876393
20
36.519321765535125
10
42.743047570126237
20
35.269321571956255
10
44.186423466625932
20
35.269321571956255
10
44.908111414875776
20
36.519321765535125
10
44.186423466625932
20
37.769321959114002
10
42.743047570126237
20
37.769321959114002
0
LWPOLYLINE
5
162
100
AcDbEntity
8
0
100
AcDbPolyline
90
6
70
1
43
0.0
10
36.388347255272613
20
33.269321959114002
10
34.944971358772918
20
33.269321959114002
10
34.223283410523074
20
32.019321765535125
10
34.944971358772925
20
30.769321571956255
10
36.388347255272613
20
30.769321571956255
10
37.110035203522457
20
32.019321765535132
0
LWPOLYLINE
5
163
100
AcDbEntity
8
0
100
AcDbPolyline
90
6
70
1
43
0.0
10
41.584499677979245
20
36.769321571956255
10
42.306187626229097
20
38.019321765535125
10
41.584499677979245
20
39.269321959113995
10
40.14112378147955
20
39.269321959113995
10
39.419435833229706
20
38.019321765535125
10
40.141123781479557
20
36.769321571956255
0
LWPOLYLINE
5
164
100
AcDbEntity
8
0
100
AcDbPolyline
90
6
70
1
43
0.0
10
36.388347255272613
20
36.269321959114002
10
34.944971358772918
20
36.269321959114002
10
34.223283410523074
20
35.019321765535125
10
34.944971358772925
20
33.769321571956255
10
36.388347255272613
20
33.769321571956255
10
37.110035203522457
20
35.019321765535132
0
LWPOLYLINE
5
165
100
AcDbEntity
8
0
100
AcDbPolyline
90
6
70
1
43
0.0
10
41.584499677979245
20
30.769321571956251
10
42.306187626229097
20
32.019321765535132
10
41.584499677979245
20
33.269321959113995
10
40.14112378147955
20
33.269321959113995
10
39.419435833229706
20
32.019321765535118
10
40.141123781479557
20
30.769321571956251
0
LWPOLYLINE
5
166
100
AcDbEntity
8
0
100
AcDbPolyline
90
6
70
1
43
0.0
10
38.986423466625929
20
40.769321959114002
10
37.543047570126234
20
40.769321959114002
10
36.82135962187639
20
39.519321765535125
10
37.543047570126241
20
38.269321571956255
10
38.986423466625929
20
38.269321571956255
10
39.708111414875773
20
39.519321765535125
0
LWPOLYLINE
5
167
100
AcDbEntity
8
0
100
AcDbPolyline
90
6
70
1
43
0.0
10
37.543047570126241
20
26.269321571956255
10
38.986423466625929
20
26.269321571956255
10
39.708111414875773
20
27.519321765535125
10
38.986423466625929
20
28.769321959114002
10
37.543047570126234
20
28.769321959114002
10
36.82135962187639
20
27.519321765535125
0
LWPOLYLINE
5
168
100
AcDbEntity
8
0
100
AcDbPolyline
90
6
70
1
43
0.0
10
34.944971358772918
20
39.269321959114002
10
34.223283410523074
20
38.019321765535125
10
34.944971358772925
20
36.769321571956255
10
36.388347255272613
20
36.769321571956255
10
37.110035203522457
20
38.019321765535132
10
36.388347255272613
20
39.269321959114002
0
LWPOLYLINE
5
169
100
AcDbEntity
8
0
100
AcDbPolyline
90
6
70
1
43
0.0
10
44.186423466625932
20
34.769321959113995
10
42.743047570126237
20
34.769321959113995
10
42.021359621876393
20
33.519321765535118
10
42.743047570126237
20
32.269321571956255
10
44.186423466625932
20
32.269321571956255
10
44.908111414875776
20
33.519321765535125
0
LWPOLYLINE
5
170
100
AcDbEntity
8
0
100
AcDbPolyline
90
6
70
1
43
0.0
10
42.743047570126237
20
23.269321571956255
10
44.186423466625932
20
23.269321571956255
10
44.908111414875776
20
24.519321765535125
10
44.186423466625932
20
25.769321959114002
10
42.743047570126237
20
25.769321959114002
10
42.021359621876393
20
24.519321765535125
0
LWPOLYLINE
5
171
100
AcDbEntity
8
0
100
AcDbPolyline
90
6
70
1
43
0.0
10
47.876380903459577
20
35.269321571956255
10
49.319756799959265
20
35.269321571956255
10
50.041444748209116
20
36.519321765535125
10
49.319756799959265
20
37.769321959114002
10
47.87638090345957
20
37.769321959114002
10
47.154692955209725
20
36.519321765535125
0
LWPOLYLINE
5
172
100
AcDbEntity
8
0
100
AcDbPolyline
90
6
70
1
43
0.0
10
44.556616743856409
20
26.019321765535125
10
45.278304692106261
20
24.769321571956255
10
46.721680588605949
20
24.769321571956255
10
47.4433685368558
20
26.019321765535128
10
46.721680588605949
20
27.269321959114002
10
45.278304692106261
20
27.269321959114002
0
LWPOLYLINE
5
173
100
AcDbEntity
8
0
100
AcDbPolyline
90
6
70
1
43
0.0
10
50.474457114812893
20
33.769321571956255
10
51.917833011312588
20
33.769321571956255
10
52.639520959562432
20
35.019321765535125
10
51.917833011312588
20
36.269321959114002
10
50.474457114812886
20
36.269321959114002
10
49.752769166563048
20
35.019321765535125
0
LWPOLYLINE
5
174
100
AcDbEntity
8
0
100
AcDbPolyline
90
6
70
1
43
0.0
10
53.076380903459572
20
38.269321571956255
10
54.519756799959268
20
38.269321571956255
10
55.241444748209112
20
39.519321765535125
10
54.519756799959268
20
40.769321959114002
10
53.076380903459572
20
40.769321959114002
10
52.354692955209728
20
39.519321765535125
0
LWPOLYLINE
5
175
100
AcDbEntity
8
0
100
AcDbPolyline
90
6
70
1
43
0.0
10
49.319756799959265
20
25.769321959114002
10
47.87638090345957
20
25.769321959114002
10
47.154692955209725
20
24.519321765535125
10
47.876380903459577
20
23.269321571956255
10
49.319756799959265
20
23.269321571956255
10
50.041444748209116
20
24.519321765535125
0
LWPOLYLINE
5
176
100
AcDbEntity
8
0
100
AcDbPolyline
90
6
70
1
43
0.0
10
45.278304692106261
20
27.769321571956258
10
46.721680588605949
20
27.769321571956258
10
47.4433685368558
20
29.019321765535125
10
46.721680588605949
20
30.269321959114002
10
45.278304692106261
20
30.269321959114002
10
44.556616743856409
20
29.019321765535125
0
LWPOLYLINE
5
177
100
AcDbEntity
8
0
100
AcDbPolyline
90
6
70
1
43
0.0
10
55.241444748209112
20
27.519321765535125
10
54.519756799959268
20
28.769321959114002
10
53.076380903459572
20
28.769321959114002
10
52.354692955209728
20
27.519321765535125
10
53.076380903459572
20
26.269321571956255
10
54.519756799959268
20
26.269321571956255
0
LWPOLYLINE
5
178
100
AcDbEntity
8
0
100
AcDbPolyline
90
6
70
1
43
0.0
10
47.154692955209725
20
30.519321765535121
10
47.876380903459577
20
29.269321571956255
10
49.319756799959265
20
29.269321571956255
10
50.041444748209116
20
30.519321765535132
10
49.319756799959265
20
31.769321959113999
10
47.87638090345957
20
31.769321959113999
0
LWPOLYLINE
5
179
100
AcDbEntity
8
0
100
AcDbPolyline
90
6
70
1
43
0.0
10
47.876380903459577
20
32.269321571956255
10
49.319756799959265
20
32.269321571956255
10
50.041444748209116
20
33.519321765535125
10
49.319756799959265
20
34.769321959113995
10
47.87638090345957
20
34.769321959113995
10
47.154692955209725
20
33.519321765535118
0
LWPOLYLINE
5
180
100
AcDbEntity
8
0
100
AcDbPolyline
90
6
70
1
43
0.0
10
55.241444748209112
20
30.519321765535132
10
54.519756799959268
20
31.769321959113999
10
53.076380903459572
20
31.769321959113999
10
52.354692955209728
20
30.519321765535121
10
53.076380903459572
20
29.269321571956255
10
54.519756799959268
20
29.269321571956255
0
LWPOLYLINE
5
181
100
AcDbEntity
8
0
100
AcDbPolyline
90
6
70
1
43
0.0
10
50.474457114812893
20
27.769321571956255
10
51.917833011312588
20
27.769321571956255
10
52.639520959562432
20
29.019321765535125
10
51.917833011312588
20
30.269321959113999
10
50.474457114812886
20
30.269321959113999
10
49.752769166563048
20
29.019321765535121
0
LWPOLYLINE
5
182
100
AcDbEntity
8
0
100
AcDbPolyline
90
6
70
1
43
0.0
10
49.752769166563048
20
26.019321765535125
10
50.474457114812893
20
24.769321571956255
10
51.917833011312588
20
24.769321571956255
10
52.639520959562432
20
26.019321765535125
10
51.917833011312588
20
27.269321959114002
10
50.474457114812886
20
27.269321959114002
0
LWPOLYLINE
5
183
100
AcDbEntity
8
0
100
AcDbPolyline
90
6
70
1
43
0.0
10
52.354692955209728
20
36.519321765535125
10
53.076380903459572
20
35.269321571956255
10
54.519756799959268
20
35.269321571956255
10
55.241444748209112
20
36.519321765535125
10
54.519756799959268
20
37.769321959114002
10
53.076380903459572
20
37.769321959114002
0
LWPOLYLINE
5
184
100
AcDbEntity
8
0
100
AcDbPolyline
90
6
70
1
43
0.0
10
46.721680588605949
20
33.269321959114002
10
45.278304692106261
20
33.269321959114002
10
44.556616743856409
20
32.019321765535125
10
45.278304692106261
20
30.769321571956255
10
46.721680588605949
20
30.769321571956255
10
47.4433685368558
20
32.019321765535132
0
LWPOLYLINE
5
185
100
AcDbEntity
8
0
100
AcDbPolyline
90
6
70
1
43
0.0
10
51.917833011312588
20
36.769321571956255
10
52.639520959562432
20
38.019321765535125
10
51.917833011312588
20
39.269321959113995
10
50.474457114812886
20
39.269321959113995
10
49.752769166563048
20
38.019321765535125
10
50.474457114812893
20
36.769321571956255
0
LWPOLYLINE
5
186
100
AcDbEntity
8
0
100
AcDbPolyline
90
6
70
1
43
0.0
10
46.721680588605949
20
36.269321959114002
10
45.278304692106261
20
36.269321959114002
10
44.556616743856409
20
35.019321765535125
10
45.278304692106261
20
33.769321571956255
10
46.721680588605949
20
33.769321571956255
10
47.4433685368558
20
35.019321765535132
0
LWPOLYLINE
5
187
100
AcDbEntity
8
0
100
AcDbPolyline
90
6
70
1
43
0.0
10
51.917833011312588
20
30.769321571956251
10
52.639520959562432
20
32.019321765535132
10
51.917833011312588
20
33.269321959113995
10
50.474457114812886
20
33.269321959113995
10
49.752769166563048
20
32.019321765535118
10
50.474457114812893
20
30.769321571956251
0
LWPOLYLINE
5
188
100
AcDbEntity
8
0
100
AcDbPolyline
90
6
70
1
43
0.0
10
49.319756799959265
20
40.769321959114002
10
47.87638090345957
20
40.769321959114002
10
47.154692955209725
20
39.519321765535125
10
47.876380903459577
20
38.269321571956255
10
49.319756799959265
20
38.269321571956255
10
50.041444748209116
20
39.519321765535125
0
LWPOLYLINE
5
189
100
AcDbEntity
8
0
100
AcDbPolyline
90
6
70
1
43
0.0
10
47.876380903459577
20
26.269321571956255
10
49.319756799959265
20
26.269321571956255
10
50.041444748209116
20
27.519321765535125
10
49.319756799959265
20
28.769321959114002
10
47.87638090345957
20
28.769321959114002
10
47.154692955209725
20
27.519321765535125
0
LWPOLYLINE
5
190
100
AcDbEntity
8
0
100
AcDbPolyline
90
6
70
1
43
0.0
10
45.278304692106261
20
39.269321959114002
10
44.556616743856409
20
38.019321765535125
10
45.278304692106261
20
36.769321571956255
10
46.721680588605949
20
36.769321571956255
10
47.4433685368558
20
38.019321765535132
10
46.721680588605949
20
39.269321959114002
0
LWPOLYLINE
5
191
100
AcDbEntity
8
0
100
AcDbPolyline
90
6
70
1
43
0.0
10
54.519756799959268
20
34.769321959113995
10
53.076380903459572
20
34.769321959113995
10
52.354692955209728
20
33.519321765535118
10
53.076380903459572
20
32.269321571956255
10
54.519756799959268
20
32.269321571956255
10
55.241444748209112
20
33.519321765535125
0
LWPOLYLINE
5
192
100
AcDbEntity
8
0
100
AcDbPolyline
90
6
70
1
43
0.0
10
53.076380903459572
20
23.269321571956255
10
54.519756799959268
20
23.269321571956255
10
55.241444748209112
20
24.519321765535125
10
54.519756799959268
20
25.769321959114002
10
53.076380903459572
20
25.769321959114002
10
52.354692955209728
20
24.519321765535125
0
LWPOLYLINE
5
193
100
AcDbEntity
8
0
100
AcDbPolyline
90
6
70
1
43
0.0
10
13.930333637097995
20
39.519321765535125
10
13.208645688848151
20
40.769321959114002
10
11.765269792348452
20
40.769321959114002
10
11.043581844098611
20
39.519321765535125
10
11.765269792348461
20
38.269321571956255
10
13.208645688848151
20
38.269321571956255
0
LWPOLYLINE
5
194
100
AcDbEntity
8
0
100
AcDbPolyline
90
6
70
1
43
0.0
10
11.043581844098611
20
36.519321765535125
10
11.765269792348461
20
35.269321571956255
10
13.208645688848151
20
35.269321571956255
10
13.930333637097995
20
36.519321765535125
10
13.208645688848151
20
37.769321959114002
10
11.765269792348452
20
37.769321959114002
0
LWPOLYLINE
5
195
100
AcDbEntity
8
0
100
AcDbPolyline
90
6
70
1
43
0.0
10
11.043581844098611
20
33.519321765535118
10
11.765269792348461
20
32.269321571956255
10
13.208645688848151
20
32.269321571956255
10
13.930333637097995
20
33.519321765535125
10
13.208645688848151
20
34.769321959113995
10
11.765269792348452
20
34.769321959113995
0
LWPOLYLINE
5
196
100
AcDbEntity
8
0
100
AcDbPolyline
90
6
70
1
43
0.0
10
11.043581844098611
20
30.519321765535121
10
11.765269792348461
20
29.269321571956255
10
13.208645688848151
20
29.269321571956255
10
13.930333637097995
20
30.519321765535132
10
13.208645688848151
20
31.769321959113999
10
11.765269792348452
20
31.769321959113999
0
LWPOLYLINE
5
197
100
AcDbEntity
8
0
100
AcDbPolyline
90
6
70
1
43
0.0
10
11.043581844098611
20
27.519321765535125
10
11.765269792348461
20
26.269321571956255
10
13.208645688848151
20
26.269321571956255
10
13.930333637097995
20
27.519321765535125
10
13.208645688848151
20
28.769321959114002
10
11.765269792348452
20
28.769321959114002
0
LWPOLYLINE
5
198
100
AcDbEntity
8
0
100
AcDbPolyline
90
6
70
1
43
0.0
10
11.043581844098611
20
24.519321765535125
10
11.765269792348461
20
23.269321571956255
10
13.208645688848151
20
23.269321571956255
10
13.930333637097995
20
24.519321765535125
10
13.208645688848151
20
25.769321959114002
10
11.765269792348452
20
25.769321959114002
0
LWPOLYLINE
5
199
100
AcDbEntity
8
0
100
AcDbPolyline
90
6
70
1
43
0.0
10
8.4455056327452933
20
26.019321765535125
10
9.1671935809951428
20
24.769321571956255
10
10.610569477494831
20
24.769321571956255
10
11.332257425744681
20
26.019321765535128
10
10.610569477494831
20
27.269321959114002
10
9.1671935809951357
20
27.269321959114002
0
LWPOLYLINE
5
200
100
AcDbEntity
8
0
100
AcDbPolyline
90
6
70
1
43
0.0
10
8.4455056327452933
20
29.019321765535125
10
9.1671935809951428
20
27.769321571956258
10
10.610569477494831
20
27.769321571956258
10
11.332257425744681
20
29.019321765535125
10
10.610569477494831
20
30.269321959114002
10
9.1671935809951357
20
30.269321959114002
0
LWPOLYLINE
5
201
100
AcDbEntity
8
0
100
AcDbPolyline
90
6
70
1
43
0.0
10
8.4455056327452933
20
32.019321765535125
10
9.1671935809951428
20
30.769321571956255
10
10.610569477494831
20
30.769321571956255
10
11.332257425744681
20
32.019321765535132
10
10.610569477494831
20
33.269321959114002
10
9.1671935809951357
20
33.269321959114002
0
LWPOLYLINE
5
202
100
AcDbEntity
8
0
100
AcDbPolyline
90
6
70
1
43
0.0
10
8.4455056327452933
20
35.019321765535125
10
9.1671935809951428
20
33.769321571956255
10
10.610569477494831
20
33.769321571956255
10
11.332257425744681
20
35.019321765535132
10
10.610569477494831
20
36.269321959114002
10
9.1671935809951357
20
36.269321959114002
0
LWPOLYLINE
5
203
100
AcDbEntity
8
0
100
AcDbPolyline
90
6
70
1
43
0.0
10
8.4455056327452933
20
38.019321765535125
10
9.1671935809951428
20
36.769321571956255
10
10.610569477494831
20
36.769321571956255
10
11.332257425744681
20
38.019321765535132
10
10.610569477494831
20
39.269321959114002
10
9.1671935809951357
20
39.269321959114002
0
LWPOLYLINE
5
204
100
AcDbEntity
8
0
100
AcDbPolyline
90
6
70
1
43
0.0
10
8.8192225259868842
20
39.519321765535125
10
8.0975345777370382
20
40.769321959114002
10
6.654158681237341
20
40.769321959114002
10
5.9324707329874986
20
39.519321765535125
10
6.6541586812373481
20
38.269321571956255
10
8.0975345777370382
20
38.269321571956255
0
LWPOLYLINE
5
205
100
AcDbEntity
8
0
100
AcDbPolyline
90
6
70
1
43
0.0
10
5.9324707329874986
20
36.519321765535125
10
6.6541586812373481
20
35.269321571956255
10
8.0975345777370382
20
35.269321571956255
10
8.8192225259868842
20
36.519321765535125
10
8.0975345777370382
20
37.769321959114002
10
6.654158681237341
20
37.769321959114002
0
LWPOLYLINE
5
206
100
AcDbEntity
8
0
100
AcDbPolyline
90
6
70
1
43
0.0
10
5.9324707329874986
20
33.519321765535118
10
6.6541586812373481
20
32.269321571956255
10
8.0975345777370382
20
32.269321571956255
10
8.8192225259868842
20
33.519321765535125
10
8.0975345777370382
20
34.769321959113995
10
6.654158681237341
20
34.769321959113995
0
LWPOLYLINE
5
207
100
AcDbEntity
8
0
100
AcDbPolyline
90
6
70
1
43
0.0
10
5.9324707329874986
20
30.519321765535121
10
6.6541586812373481
20
29.269321571956255
10
8.0975345777370382
20
29.269321571956255
10
8.8192225259868842
20
30.519321765535132
10
8.0975345777370382
20
31.769321959113999
10
6.654158681237341
20
31.769321959113999
0
LWPOLYLINE
5
208
100
AcDbEntity
8
0
100
AcDbPolyline
90
6
70
1
43
0.0
10
5.9324707329874986
20
27.519321765535125
10
6.6541586812373481
20
26.269321571956255
10
8.0975345777370382
20
26.269321571956255
10
8.8192225259868842
20
27.519321765535125
10
8.0975345777370382
20
28.769321959114002
10
6.654158681237341
20
28.769321959114002
0
LWPOLYLINE
5
209
100
AcDbEntity
8
0
100
AcDbPolyline
90
6
70
1
43
0.0
10
5.9324707329874986
20
24.519321765535125
10
6.6541586812373481
20
23.269321571956255
10
8.0975345777370382
20
23.269321571956255
10
8.8192225259868842
20
24.519321765535125
10
8.0975345777370382
20
25.769321959114002
10
6.654158681237341
20
25.769321959114002
0
LWPOLYLINE
5
210
100
AcDbEntity
8
0
100
AcDbPolyline
90
6
70
1
43
0.0
10
3.3343945216341808
20
26.019321765535125
10
4.0560824698840303
20
24.769321571956255
10
5.4994583663837204
20
24.769321571956255
10
6.2211463146335682
20
26.019321765535128
10
5.4994583663837204
20
27.269321959114002
10
4.0560824698840232
20
27.269321959114002
0
LWPOLYLINE
5
211
100
AcDbEntity
8
0
100
AcDbPolyline
90
6
70
1
43
0.0
10
3.3343945216341808
20
29.019321765535125
10
4.0560824698840303
20
27.769321571956258
10
5.4994583663837204
20
27.769321571956258
10
6.2211463146335682
20
29.019321765535125
10
5.4994583663837204
20
30.269321959114002
10
4.0560824698840232
20
30.269321959114002
0
LWPOLYLINE
5
212
100
AcDbEntity
8
0
100
AcDbPolyline
90
6
70
1
43
0.0
10
3.3343945216341808
20
32.019321765535125
10
4.0560824698840303
20
30.769321571956255
10
5.4994583663837204
20
30.769321571956255
10
6.2211463146335682
20
32.019321765535132
10
5.4994583663837204
20
33.269321959114002
10
4.0560824698840232
20
33.269321959114002
0
LWPOLYLINE
5
213
100
AcDbEntity
8
0
100
AcDbPolyline
90
6
70
1
43
0.0
10
3.3343945216341808
20
35.019321765535125
10
4.0560824698840303
20
33.769321571956255
10
5.4994583663837204
20
33.769321571956255
10
6.2211463146335682
20
35.019321765535132
10
5.4994583663837204
20
36.269321959114002
10
4.0560824698840232
20
36.269321959114002
0
LWPOLYLINE
5
214
100
AcDbEntity
8
0
100
AcDbPolyline
90
6
70
1
43
0.0
10
3.3343945216341808
20
38.019321765535125
10
4.0560824698840303
20
36.769321571956255
10
5.4994583663837204
20
36.769321571956255
10
6.2211463146335682
20
38.019321765535132
10
5.4994583663837204
20
39.269321959114002
10
4.0560824698840232
20
39.269321959114002
0
LWPOLYLINE
5
215
100
AcDbEntity
8
0
100
AcDbPolyline
90
6
70
1
43
0.0
10
3.7081114148757721
20
39.519321765535125
10
2.9864234666259248
20
40.769321959114002
10
1.5430475701262281
20
40.769321959114002
10
0.82135962187638523
20
39.519321765535125
10
1.5430475701262347
20
38.269321571956255
10
2.9864234666259248
20
38.269321571956255
0
LWPOLYLINE
5
216
100
AcDbEntity
8
0
100
AcDbPolyline
90
6
70
1
43
0.0
10
0.82135962187638523
20
36.519321765535125
10
1.5430475701262347
20
35.269321571956255
10
2.9864234666259248
20
35.269321571956255
10
3.7081114148757721
20
36.519321765535125
10
2.9864234666259248
20
37.769321959114002
10
1.5430475701262281
20
37.769321959114002
0
LWPOLYLINE
5
217
100
AcDbEntity
8
0
100
AcDbPolyline
90
6
70
1
43
0.0
10
0.82135962187638523
20
33.519321765535118
10
1.5430475701262347
20
32.269321571956255
10
2.9864234666259248
20
32.269321571956255
10
3.7081114148757721
20
33.519321765535125
10
2.9864234666259248
20
34.769321959113995
10
1.5430475701262281
20
34.769321959113995
0
LWPOLYLINE
5
218
100
AcDbEntity
8
0
100
AcDbPolyline
90
6
70
1
43
0.0
10
0.82135962187638523
20
30.519321765535121
10
1.5430475701262347
20
29.269321571956255
10
2.9864234666259248
20
29.269321571956255
10
3.7081114148757721
20
30.519321765535132
10
2.9864234666259248
20
31.769321959113999
10
1.5430475701262281
20
31.769321959113999
0
LWPOLYLINE
5
219
100
AcDbEntity
8
0
100
AcDbPolyline
90
6
70
1
43
0.0
10
0.82135962187638523
20
27.519321765535125
10
1.5430475701262347
20
26.269321571956255
10
2.9864234666259248
20
26.269321571956255
10
3.7081114148757721
20
27.519321765535125
10
2.9864234666259248
20
28.769321959114002
10
1.5430475701262281
20
28.769321959114002
0
LWPOLYLINE
5
220
100
AcDbEntity
8
0
100
AcDbPolyline
90
6
70
1
43
0.0
10
0.82135962187638523
20
24.519321765535125
10
1.5430475701262347
20
23.269321571956255
10
2.9864234666259248
20
23.269321571956255
10
3.7081114148757721
20
24.519321765535125
10
2.9864234666259248
20
25.769321959114002
10
1.5430475701262281
20
25.769321959114002
0
LWPOLYLINE
5
221
100
AcDbEntity
8
0
100
AcDbPolyline
90
6
70
1
43
0.0
10
-1.7767165894769321
20
26.019321765535125
10
-1.0550286412270826
20
24.769321571956255
10
0.38834725527260749
20
24.769321571956255
10
1.1100352035224548
20
26.019321765535128
10
0.38834725527260749
20
27.269321959114002
10
-1.0550286412270893
20
27.269321959114002
0
LWPOLYLINE
5
222
100
AcDbEntity
8
0
100
AcDbPolyline
90
6
70
1
43
0.0
10
-1.7767165894769321
20
29.019321765535125
10
-1.0550286412270826
20
27.769321571956258
10
0.38834725527260749
20
27.769321571956258
10
1.1100352035224548
20
29.019321765535125
10
0.38834725527260749
20
30.269321959114002
10
-1.0550286412270893
20
30.269321959114002
0
LWPOLYLINE
5
223
100
AcDbEntity
8
0
100
AcDbPolyline
90
6
70
1
43
0.0
10
-1.7767165894769321
20
32.019321765535125
10
-1.0550286412270826
20
30.769321571956255
10
0.38834725527260749
20
30.769321571956255
10
1.1100352035224548
20
32.019321765535132
10
0.38834725527260749
20
33.269321959114002
10
-1.0550286412270893
20
33.269321959114002
0
LWPOLYLINE
5
224
100
AcDbEntity
8
0
100
AcDbPolyline
90
6
70
1
43
0.0
10
-1.7767165894769321
20
35.019321765535125
10
-1.0550286412270826
20
33.769321571956255
10
0.38834725527260749
20
33.769321571956255
10
1.1100352035224548
20
35.019321765535132
10
0.38834725527260749
20
36.269321959114002
10
-1.0550286412270893
20
36.269321959114002
0
LWPOLYLINE
5
225
100
AcDbEntity
8
0
100
AcDbPolyline
90
6
70
1
43
0.0
10
-1.7767165894769321
20
38.019321765535125
10
-1.0550286412270826
20
36.769321571956255
10
0.38834725527260749
20
36.769321571956255
10
1.1100352035224548
20
38.019321765535132
10
0.38834725527260749
20
39.269321959114002
10
-1.0550286412270893
20
39.269321959114002
0
LWPOLYLINE
5
226
100
AcDbEntity
8
0
100
AcDbPolyline
90
6
70
1
43
0.0
10
-1.4029996962353386
20
39.519321765535125
10
-2.1246876444851859
20
40.769321959114002
10
-3.5680635409848827
20
40.769321959114002
10
-4.2897514892347255
20
39.519321765535125
10
-3.568063540984876
20
38.269321571956255
10
-2.1246876444851859
20
38.269321571956255
0
LWPOLYLINE
5
227
100
AcDbEntity
8
0
100
AcDbPolyline
90
6
70
1
43
0.0
10
-4.2897514892347255
20
36.519321765535125
10
-3.568063540984876
20
35.269321571956255
10
-2.1246876444851859
20
35.269321571956255
10
-1.4029996962353386
20
36.519321765535125
10
-2.1246876444851859
20
37.769321959114002
10
-3.5680635409848827
20
37.769321959114002
0
LWPOLYLINE
5
228
100
AcDbEntity
8
0
100
AcDbPolyline
90
6
70
1
43
0.0
10
-4.2897514892347255
20
33.519321765535118
10
-3.568063540984876
20
32.269321571956255
10
-2.1246876444851859
20
32.269321571956255
10
-1.4029996962353386
20
33.519321765535125
10
-2.1246876444851859
20
34.769321959113995
10
-3.5680635409848827
20
34.769321959113995
0
LWPOLYLINE
5
229
100
AcDbEntity
8
0
100
AcDbPolyline
90
6
70
1
43
0.0
10
-4.2897514892347255
20
30.519321765535121
10
-3.568063540984876
20
29.269321571956255
10
-2.1246876444851859
20
29.269321571956255
10
-1.4029996962353386
20
30.519321765535132
10
-2.1246876444851859
20
31.769321959113999
10
-3.5680635409848827
20
31.769321959113999
0
LWPOLYLINE
5
230
100
AcDbEntity
8
0
100
AcDbPolyline
90
6
70
1
43
0.0
10
-4.2897514892347255
20
27.519321765535125
10
-3.568063540984876
20
26.269321571956255
10
-2.1246876444851859
20
26.269321571956255
10
-1.4029996962353386
20
27.519321765535125
10
-2.1246876444851859
20
28.769321959114002
10
-3.5680635409848827
20
28.769321959114002
0
LWPOLYLINE
5
231
100
AcDbEntity
8
0
100
AcDbPolyline
90
6
70
1
43
0.0
10
-4.2897514892347255
20
24.519321765535125
10
-3.568063540984876
20
23.269321571956255
10
-2.1246876444851859
20
23.269321571956255
10
-1.4029996962353386
20
24.519321765535125
10
-2.1246876444851859
20
25.769321959114002
10
-3.5680635409848827
20
25.769321959114002
0
LWPOLYLINE
5
232
100
AcDbEntity
8
0
100
AcDbPolyline
90
6
70
1
43
0.0
10
-6.8878277005880424
20
26.019321765535125
10
-6.1661397523381929
20
24.769321571956255
10
-4.7227638558385028
20
24.769321571956255
10
-4.0010759075886559
20
26.019321765535128
10
-4.7227638558385028
20
27.269321959114002
10
-6.1661397523382
20
27.269321959114002
0
LWPOLYLINE
5
233
100
AcDbEntity
8
0
100
AcDbPolyline
90
6
70
1
43
0.0
10
-6.8878277005880424
20
29.019321765535125
10
-6.1661397523381929
20
27.769321571956258
10
-4.7227638558385028
20
27.769321571956258
10
-4.0010759075886559
20
29.019321765535125
10
-4.7227638558385028
20
30.269321959114002
10
-6.1661397523382
20
30.269321959114002
0
LWPOLYLINE
5
234
100
AcDbEntity
8
0
100
AcDbPolyline
90
6
70
1
43
0.0
10
-6.8878277005880424
20
32.019321765535125
10
-6.1661397523381929
20
30.769321571956255
10
-4.7227638558385028
20
30.769321571956255
10
-4.0010759075886559
20
32.019321765535132
10
-4.7227638558385028
20
33.269321959114002
10
-6.1661397523382
20
33.269321959114002
0
LWPOLYLINE
5
235
100
AcDbEntity
8
0
100
AcDbPolyline
90
6
70
1
43
0.0
10
-6.8878277005880424
20
35.019321765535125
10
-6.1661397523381929
20
33.769321571956255
10
-4.7227638558385028
20
33.769321571956255
10
-4.0010759075886559
20
35.019321765535132
10
-4.7227638558385028
20
36.269321959114002
10
-6.1661397523382
20
36.269321959114002
0
LWPOLYLINE
5
236
100
AcDbEntity
8
0
100
AcDbPolyline
90
6
70
1
43
0.0
10
-6.8878277005880424
20
38.019321765535125
10
-6.1661397523381929
20
36.769321571956255
10
-4.7227638558385028
20
36.769321571956255
10
-4.0010759075886559
20
38.019321765535132
10
-4.7227638558385028
20
39.269321959114002
10
-6.1661397523382
20
39.269321959114002
0
LWPOLYLINE
5
237
100
AcDbEntity
8
0
100
AcDbPolyline
90
6
70
1
43
0.0
10
-6.5141108073464498
20
39.519321765535125
10
-7.2357987555962966
20
40.769321959114002
10
-8.6791746520959929
20
40.769321959114002
10
-9.4008626003458353
20
39.519321765535125
10
-8.6791746520959876
20
38.269321571956255
10
-7.2357987555962966
20
38.269321571956255
0
LWPOLYLINE
5
238
100
AcDbEntity
8
0
100
AcDbPolyline
90
6
70
1
43
0.0
10
-9.4008626003458353
20
36.519321765535125
10
-8.6791746520959876
20
35.269321571956255
10
-7.2357987555962966
20
35.269321571956255
10
-6.5141108073464498
20
36.519321765535125
10
-7.2357987555962966
20
37.769321959114002
10
-8.6791746520959929
20
37.769321959114002
0
LWPOLYLINE
5
239
100
AcDbEntity
8
0
100
AcDbPolyline
90
6
70
1
43
0.0
10
-9.4008626003458353
20
33.519321765535118
10
-8.6791746520959876
20
32.269321571956255
10
-7.2357987555962966
20
32.269321571956255
10
-6.5141108073464498
20
33.519321765535125
10
-7.2357987555962966
20
34.769321959113995
10
-8.6791746520959929
20
34.769321959113995
0
LWPOLYLINE
5
240
100
AcDbEntity
8
0
100
AcDbPolyline
90
6
70
1
43
0.0
10
-9.4008626003458353
20
30.519321765535121
10
-8.6791746520959876
20
29.269321571956255
10
-7.2357987555962966
20
29.269321571956255
10
-6.5141108073464498
20
30.519321765535132
10
-7.2357987555962966
20
31.769321959113999
10
-8.6791746520959929
20
31.769321959113999
0
LWPOLYLINE
5
241
100
AcDbEntity
8
0
100
AcDbPolyline
90
6
70
1
43
0.0
10
-9.4008626003458353
20
27.519321765535125
10
-8.6791746520959876
20
26.269321571956255
10
-7.2357987555962966
20
26.269321571956255
10
-6.5141108073464498
20
27.519321765535125
10
-7.2357987555962966
20
28.769321959114002
10
-8.6791746520959929
20
28.769321959114002
0
LWPOLYLINE
5
242
100
AcDbEntity
8
0
100
AcDbPolyline
90
6
70
1
43
0.0
10
-9.4008626003458353
20
24.519321765535125
10
-8.6791746520959876
20
23.269321571956255
10
-7.2357987555962966
20
23.269321571956255
10
-6.5141108073464498
20
24.519321765535125
10
-7.2357987555962966
20
25.769321959114002
10
-8.6791746520959929
20
25.769321959114002
0
LWPOLYLINE
5
243
100
AcDbEntity
8
0
100
AcDbPolyline
90
6
70
1
43
0.0
10
-11.998938811699153
20
26.019321765535125
10
-11.277250863449304
20
24.769321571956255
10
-9.8338749669496135
20
24.769321571956255
10
-9.1121870186997675
20
26.019321765535128
10
-9.8338749669496135
20
27.269321959114002
10
-11.277250863449311
20
27.269321959114002
0
LWPOLYLINE
5
244
100
AcDbEntity
8
0
100
AcDbPolyline
90
6
70
1
43
0.0
10
-11.998938811699153
20
29.019321765535125
10
-11.277250863449304
20
27.769321571956258
10
-9.8338749669496135
20
27.769321571956258
10
-9.1121870186997675
20
29.019321765535125
10
-9.8338749669496135
20
30.269321959114002
10
-11.277250863449311
20
30.269321959114002
0
LWPOLYLINE
5
245
100
AcDbEntity
8
0
100
AcDbPolyline
90
6
70
1
43
0.0
10
-11.998938811699153
20
32.019321765535125
10
-11.277250863449304
20
30.769321571956255
10
-9.8338749669496135
20
30.769321571956255
10
-9.1121870186997675
20
32.019321765535132
10
-9.8338749669496135
20
33.269321959114002
10
-11.277250863449311
20
33.269321959114002
0
LWPOLYLINE
5
246
100
AcDbEntity
8
0
100
AcDbPolyline
90
6
70
1
43
0.0
10
-11.998938811699153
20
35.019321765535125
10
-11.277250863449304
20
33.769321571956255
10
-9.8338749669496135
20
33.769321571956255
10
-9.1121870186997675
20
35.019321765535132
10
-9.8338749669496135
20
36.269321959114002
10
-11.277250863449311
20
36.269321959114002
0
LWPOLYLINE
5
247
100
AcDbEntity
8
0
100
AcDbPolyline
90
6
70
1
43
0.0
10
-11.998938811699153
20
38.019321765535125
10
-11.277250863449304
20
36.769321571956255
10
-9.8338749669496135
20
36.769321571956255
10
-9.1121870186997675
20
38.019321765535132
10
-9.8338749669496135
20
39.269321959114002
10
-11.277250863449311
20
39.269321959114002
0
LWPOLYLINE
5
248
100
AcDbEntity
8
0
100
AcDbPolyline
90
6
70
1
43
0.0
10
-11.625221918457564
20
39.519321765535125
10
-12.346909866707412
20
40.769321959114002
10
-13.790285763207109
20
40.769321959114002
10
-14.511973711456951
20
39.519321765535125
10
-13.790285763207102
20
38.269321571956255
10
-12.346909866707412
20
38.269321571956255
0
LWPOLYLINE
5
249
100
AcDbEntity
8
0
100
AcDbPolyline
90
6
70
1
43
0.0
10
-14.511973711456951
20
36.519321765535125
10
-13.790285763207102
20
35.269321571956255
10
-12.346909866707412
20
35.269321571956255
10
-11.625221918457564
20
36.519321765535125
10
-12.346909866707412
20
37.769321959114002
10
-13.790285763207109
20
37.769321959114002
0
LWPOLYLINE
5
250
100
AcDbEntity
8
0
100
AcDbPolyline
90
6
70
1
43
0.0
10
-14.511973711456951
20
33.519321765535118
10
-13.790285763207102
20
32.269321571956255
10
-12.346909866707412
20
32.269321571956255
10
-11.625221918457564
20
33.519321765535125
10
-12.346909866707412
20
34.769321959113995
10
-13.790285763207109
20
34.769321959113995
0
LWPOLYLINE
5
251
100
AcDbEntity
8
0
100
AcDbPolyline
90
6
70
1
43
0.0
10
-14.511973711456951
20
30.519321765535121
10
-13.790285763207102
20
29.269321571956255
10
-12.346909866707412
20
29.269321571956255
10
-11.625221918457564
20
30.519321765535132
10
-12.346909866707412
20
31.769321959113999
10
-13.790285763207109
20
31.769321959113999
0
LWPOLYLINE
5
252
100
AcDbEntity
8
0
100
AcDbPolyline
90
6
70
1
43
0.0
10
-14.511973711456951
20
27.519321765535125
10
-13.790285763207102
20
26.269321571956255
10
-12.346909866707412
20
26.269321571956255
10
-11.625221918457564
20
27.519321765535125
10
-12.346909866707412
20
28.769321959114002
10
-13.790285763207109
20
28.769321959114002
0
LWPOLYLINE
5
253
100
AcDbEntity
8
0
100
AcDbPolyline
90
6
70
1
43
0.0
10
-14.511973711456951
20
24.519321765535125
10
-13.790285763207102
20
23.269321571956255
10
-12.346909866707412
20
23.269321571956255
10
-11.625221918457564
20
24.519321765535125
10
-12.346909866707412
20
25.769321959114002
10
-13.790285763207109
20
25.769321959114002
0
LWPOLYLINE
5
254
100
AcDbEntity
8
0
100
AcDbPolyline
90
6
70
1
43
0.0
10
-17.110049922810269
20
26.019321765535125
10
-16.388361974560418
20
24.769321571956255
10
-14.94498607806073
20
24.769321571956255
10
-14.223298129810882
20
26.019321765535128
10
-14.94498607806073
20
27.269321959114002
10
-16.388361974560425
20
27.269321959114002
0
LWPOLYLINE
5
255
100
AcDbEntity
8
0
100
AcDbPolyline
90
6
70
1
43
0.0
10
-17.110049922810269
20
29.019321765535125
10
-16.388361974560418
20
27.769321571956258
10
-14.94498607806073
20
27.769321571956258
10
-14.223298129810882
20
29.019321765535125
10
-14.94498607806073
20
30.269321959114002
10
-16.388361974560425
20
30.269321959114002
0
LWPOLYLINE
5
256
100
AcDbEntity
8
0
100
AcDbPolyline
90
6
70
1
43
0.0
10
-17.110049922810269
20
32.019321765535125
10
-16.388361974560418
20
30.769321571956255
10
-14.94498607806073
20
30.769321571956255
10
-14.223298129810882
20
32.019321765535132
10
-14.94498607806073
20
33.269321959114002
10
-16.388361974560425
20
33.269321959114002
0
LWPOLYLINE
5
257
100
AcDbEntity
8
0
100
AcDbPolyline
90
6
70
1
43
0.0
10
-17.110049922810269
20
35.019321765535125
10
-16.388361974560418
20
33.769321571956255
10
-14.94498607806073
20
33.769321571956255
10
-14.223298129810882
20
35.019321765535132
10
-14.94498607806073
20
36.269321959114002
10
-16.388361974560425
20
36.269321959114002
0
LWPOLYLINE
5
258
100
AcDbEntity
8
0
100
AcDbPolyline
90
6
70
1
43
0.0
10
-17.110049922810269
20
38.019321765535125
10
-16.388361974560418
20
36.769321571956255
10
-14.94498607806073
20
36.769321571956255
10
-14.223298129810882
20
38.019321765535132
10
-14.94498607806073
20
39.269321959114002
10
-16.388361974560425
20
39.269321959114002
0
LWPOLYLINE
5
259
100
AcDbEntity
8
0
100
AcDbPolyline
90
6
70
1
43
0.0
10
-16.736333029568677
20
39.519321765535125
10
-17.458020977818521
20
40.769321959114002
10
-18.90139687431822
20
40.769321959114002
10
-19.62308482256806
20
39.519321765535125
10
-18.901396874318213
20
38.269321571956255
10
-17.458020977818521
20
38.269321571956255
0
LWPOLYLINE
5
260
100
AcDbEntity
8
0
100
AcDbPolyline
90
6
70
1
43
0.0
10
-19.62308482256806
20
36.519321765535125
10
-18.901396874318213
20
35.269321571956255
10
-17.458020977818521
20
35.269321571956255
10
-16.736333029568677
20
36.519321765535125
10
-17.458020977818521
20
37.769321959114002
10
-18.90139687431822
20
37.769321959114002
0
LWPOLYLINE
5
261
100
AcDbEntity
8
0
100
AcDbPolyline
90
6
70
1
43
0.0
10
-19.62308482256806
20
33.519321765535118
10
-18.901396874318213
20
32.269321571956255
10
-17.458020977818521
20
32.269321571956255
10
-16.736333029568677
20
33.519321765535125
10
-17.458020977818521
20
34.769321959113995
10
-18.90139687431822
20
34.769321959113995
0
LWPOLYLINE
5
262
100
AcDbEntity
8
0
100
AcDbPolyline
90
6
70
1
43
0.0
10
-19.62308482256806
20
30.519321765535121
10
-18.901396874318213
20
29.269321571956255
10
-17.458020977818521
20
29.269321571956255
10
-16.736333029568677
20
30.519321765535132
10
-17.458020977818521
20
31.769321959113999
10
-18.90139687431822
20
31.769321959113999
0
LWPOLYLINE
5
263
100
AcDbEntity
8
0
100
AcDbPolyline
90
6
70
1
43
0.0
10
-19.62308482256806
20
27.519321765535125
10
-18.901396874318213
20
26.269321571956255
10
-17.458020977818521
20
26.269321571956255
10
-16.736333029568677
20
27.519321765535125
10
-17.458020977818521
20
28.769321959114002
10
-18.90139687431822
20
28.769321959114002
0
LWPOLYLINE
5
264
100
AcDbEntity
8
0
100
AcDbPolyline
90
6
70
1
43
0.0
10
-19.62308482256806
20
24.519321765535125
10
-18.901396874318213
20
23.269321571956255
10
-17.458020977818521
20
23.269321571956255
10
-16.736333029568677
20
24.519321765535125
10
-17.458020977818521
20
25.769321959114002
10
-18.90139687431822
20
25.769321959114002
0
LWPOLYLINE
5
265
100
AcDbEntity
8
0
100
AcDbPolyline
90
6
70
1
43
0.0
10
-22.221161033921383
20
26.019321765535125
10
-21.499473085671532
20
24.769321571956255
10
-20.056097189171844
20
24.769321571956255
10
-19.334409240921993
20
26.019321765535128
10
-20.056097189171844
20
27.269321959114002
10
-21.499473085671536
20
27.269321959114002
0
LWPOLYLINE
5
266
100
AcDbEntity
8
0
100
AcDbPolyline
90
6
70
1
43
0.0
10
-22.221161033921383
20
29.019321765535125
10
-21.499473085671532
20
27.769321571956258
10
-20.056097189171844
20
27.769321571956258
10
-19.334409240921993
20
29.019321765535125
10
-20.056097189171844
20
30.269321959114002
10
-21.499473085671536
20
30.269321959114002
0
LWPOLYLINE
5
267
100
AcDbEntity
8
0
100
AcDbPolyline
90
6
70
1
43
0.0
10
-22.221161033921383
20
32.019321765535125
10
-21.499473085671532
20
30.769321571956255
10
-20.056097189171844
20
30.769321571956255
10
-19.334409240921993
20
32.019321765535132
10
-20.056097189171844
20
33.269321959114002
10
-21.499473085671536
20
33.269321959114002
0
LWPOLYLINE
5
268
100
AcDbEntity
8
0
100
AcDbPolyline
90
6
70
1
43
0.0
10
-22.221161033921383
20
35.019321765535125
10
-21.499473085671532
20
33.769321571956255
10
-20.056097189171844
20
33.769321571956255
10
-19.334409240921993
20
35.019321765535132
10
-20.056097189171844
20
36.269321959114002
10
-21.499473085671536
20
36.269321959114002
0
LWPOLYLINE
5
269
100
AcDbEntity
8
0
100
AcDbPolyline
90
6
70
1
43
0.0
10
-22.221161033921383
20
38.019321765535125
10
-21.499473085671532
20
36.769321571956255
10
-20.056097189171844
20
36.769321571956255
10
-19.334409240921993
20
38.019321765535132
10
-20.056097189171844
20
39.269321959114002
10
-21.499473085671536
20
39.269321959114002
0
LWPOLYLINE
5
270
100
AcDbEntity
8
0
100
AcDbPolyline
90
6
70
1
43
0.0
10
-21.847444140679784
20
39.519321765535125
10
-22.569132088929635
20
40.769321959114002
10
-24.01250798542933
20
40.769321959114002
10
-24.734195933679175
20
39.519321765535125
10
-24.012507985429323
20
38.269321571956255
10
-22.569132088929635
20
38.269321571956255
0
LWPOLYLINE
5
271
100
AcDbEntity
8
0
100
AcDbPolyline
90
6
70
1
43
0.0
10
-24.734195933679175
20
36.519321765535125
10
-24.012507985429323
20
35.269321571956255
10
-22.569132088929635
20
35.269321571956255
10
-21.847444140679784
20
36.519321765535125
10
-22.569132088929635
20
37.769321959114002
10
-24.01250798542933
20
37.769321959114002
0
LWPOLYLINE
5
272
100
AcDbEntity
8
0
100
AcDbPolyline
90
6
70
1
43
0.0
10
-24.734195933679175
20
33.519321765535118
10
-24.012507985429323
20
32.269321571956255
10
-22.569132088929635
20
32.269321571956255
10
-21.847444140679784
20
33.519321765535125
10
-22.569132088929635
20
34.769321959113995
10
-24.01250798542933
20
34.769321959113995
0
LWPOLYLINE
5
273
100
AcDbEntity
8
0
100
AcDbPolyline
90
6
70
1
43
0.0
10
-24.734195933679175
20
30.519321765535121
10
-24.012507985429323
20
29.269321571956255
10
-22.569132088929635
20
29.269321571956255
10
-21.847444140679784
20
30.519321765535132
10
-22.569132088929635
20
31.769321959113999
10
-24.01250798542933
20
31.769321959113999
0
LWPOLYLINE
5
274
100
AcDbEntity
8
0
100
AcDbPolyline
90
6
70
1
43
0.0
10
-24.734195933679175
20
27.519321765535125
10
-24.012507985429323
20
26.269321571956255
10
-22.569132088929635
20
26.269321571956255
10
-21.847444140679784
20
27.519321765535125
10
-22.569132088929635
20
28.769321959114002
10
-24.01250798542933
20
28.769321959114002
0
LWPOLYLINE
5
275
100
AcDbEntity
8
0
100
AcDbPolyline
90
6
70
1
43
0.0
10
-24.734195933679175
20
24.519321765535125
10
-24.012507985429323
20
23.269321571956255
10
-22.569132088929635
20
23.269321571956255
10
-21.847444140679784
20
24.519321765535125
10
-22.569132088929635
20
25.769321959114002
10
-24.01250798542933
20
25.769321959114002
0
LWPOLYLINE
5
276
100
AcDbEntity
8
0
100
AcDbPolyline
90
6
70
1
43
0.0
10
-27.332272145032491
20
26.019321765535125
10
-26.610584196782643
20
24.769321571956255
10
-25.167208300282951
20
24.769321571956255
10
-24.445520352033103
20
26.019321765535128
10
-25.167208300282951
20
27.269321959114002
10
-26.610584196782646
20
27.269321959114002
0
LWPOLYLINE
5
277
100
AcDbEntity
8
0
100
AcDbPolyline
90
6
70
1
43
0.0
10
-27.332272145032491
20
29.019321765535125
10
-26.610584196782643
20
27.769321571956258
10
-25.167208300282951
20
27.769321571956258
10
-24.445520352033103
20
29.019321765535125
10
-25.167208300282951
20
30.269321959114002
10
-26.610584196782646
20
30.269321959114002
0
LWPOLYLINE
5
278
100
AcDbEntity
8
0
100
AcDbPolyline
90
6
70
1
43
0.0
10
-27.332272145032491
20
32.019321765535125
10
-26.610584196782643
20
30.769321571956255
10
-25.167208300282951
20
30.769321571956255
10
-24.445520352033103
20
32.019321765535132
10
-25.167208300282951
20
33.269321959114002
10
-26.610584196782646
20
33.269321959114002
0
LWPOLYLINE
5
279
100
AcDbEntity
8
0
100
AcDbPolyline
90
6
70
1
43
0.0
10
-27.332272145032491
20
35.019321765535125
10
-26.610584196782643
20
33.769321571956255
10
-25.167208300282951
20
33.769321571956255
10
-24.445520352033103
20
35.019321765535132
10
-25.167208300282951
20
36.269321959114002
10
-26.610584196782646
20
36.269321959114002
0
LWPOLYLINE
5
280
100
AcDbEntity
8
0
100
AcDbPolyline
90
6
70
1
43
0.0
10
-27.332272145032491
20
38.019321765535125
10
-26.610584196782643
20
36.769321571956255
10
-25.167208300282951
20
36.769321571956255
10
-24.445520352033103
20
38.019321765535132
10
-25.167208300282951
20
39.269321959114002
10
-26.610584196782646
20
39.269321959114002
0
LWPOLYLINE
5
281
100
AcDbEntity
8
0
100
AcDbPolyline
90
6
70
1
43
0.0
10
-26.958555251790894
20
39.519321765535125
10
-27.680243200040742
20
40.769321959114002
10
-29.123619096540445
20
40.769321959114002
10
-29.845307044790282
20
39.519321765535125
10
-29.123619096540434
20
38.269321571956255
10
-27.680243200040742
20
38.269321571956255
0
LWPOLYLINE
5
282
100
AcDbEntity
8
0
100
AcDbPolyline
90
6
70
1
43
0.0
10
-29.845307044790282
20
36.519321765535125
10
-29.123619096540434
20
35.269321571956255
10
-27.680243200040742
20
35.269321571956255
10
-26.958555251790894
20
36.519321765535125
10
-27.680243200040742
20
37.769321959114002
10
-29.123619096540445
20
37.769321959114002
0
LWPOLYLINE
5
283
100
AcDbEntity
8
0
100
AcDbPolyline
90
6
70
1
43
0.0
10
-29.845307044790282
20
33.519321765535118
10
-29.123619096540434
20
32.269321571956255
10
-27.680243200040742
20
32.269321571956255
10
-26.958555251790894
20
33.519321765535125
10
-27.680243200040742
20
34.769321959113995
10
-29.123619096540445
20
34.769321959113995
0
LWPOLYLINE
5
284
100
AcDbEntity
8
0
100
AcDbPolyline
90
6
70
1
43
0.0
10
-29.845307044790282
20
30.519321765535121
10
-29.123619096540434
20
29.269321571956255
10
-27.680243200040742
20
29.269321571956255
10
-26.958555251790894
20
30.519321765535132
10
-27.680243200040742
20
31.769321959113999
10
-29.123619096540445
20
31.769321959113999
0
LWPOLYLINE
5
285
100
AcDbEntity
8
0
100
AcDbPolyline
90
6
70
1
43
0.0
10
-29.845307044790282
20
27.519321765535125
10
-29.123619096540434
20
26.269321571956255
10
-27.680243200040742
20
26.269321571956255
10
-26.958555251790894
20
27.519321765535125
10
-27.680243200040742
20
28.769321959114002
10
-29.123619096540445
20
28.769321959114002
0
LWPOLYLINE
5
286
100
AcDbEntity
8
0
100
AcDbPolyline
90
6
70
1
43
0.0
10
-29.845307044790282
20
24.519321765535125
10
-29.123619096540434
20
23.269321571956255
10
-27.680243200040742
20
23.269321571956255
10
-26.958555251790894
20
24.519321765535125
10
-27.680243200040742
20
25.769321959114002
10
-29.123619096540445
20
25.769321959114002
0
LWPOLYLINE
5
287
100
AcDbEntity
8
0
100
AcDbPolyline
90
6
70
1
43
0.0
10
-32.443383256143605
20
26.019321765535125
10
-31.721695307893754
20
24.769321571956255
10
-30.278319411394065
20
24.769321571956255
10
-29.556631463144214
20
26.019321765535128
10
-30.278319411394065
20
27.269321959114002
10
-31.721695307893757
20
27.269321959114002
0
LWPOLYLINE
5
288
100
AcDbEntity
8
0
100
AcDbPolyline
90
6
70
1
43
0.0
10
-32.443383256143605
20
29.019321765535125
10
-31.721695307893754
20
27.769321571956258
10
-30.278319411394065
20
27.769321571956258
10
-29.556631463144214
20
29.019321765535125
10
-30.278319411394065
20
30.269321959114002
10
-31.721695307893757
20
30.269321959114002
0
LWPOLYLINE
5
289
100
AcDbEntity
8
0
100
AcDbPolyline
90
6
70
1
43
0.0
10
-32.443383256143605
20
32.019321765535125
10
-31.721695307893754
20
30.769321571956255
10
-30.278319411394065
20
30.769321571956255
10
-29.556631463144214
20
32.019321765535132
10
-30.278319411394065
20
33.269321959114002
10
-31.721695307893757
20
33.269321959114002
0
LWPOLYLINE
5
290
100
AcDbEntity
8
0
100
AcDbPolyline
90
6
70
1
43
0.0
10
-32.443383256143605
20
35.019321765535125
10
-31.721695307893754
20
33.769321571956255
10
-30.278319411394065
20
33.769321571956255
10
-29.556631463144214
20
35.019321765535132
10
-30.278319411394065
20
36.269321959114002
10
-31.721695307893757
20
36.269321959114002
0
LWPOLYLINE
5
291
100
AcDbEntity
8
0
100
AcDbPolyline
90
6
70
1
43
0.0
10
-32.443383256143605
20
38.019321765535125
10
-31.721695307893754
20
36.769321571956255
10
-30.278319411394065
20
36.769321571956255
10
-29.556631463144214
20
38.019321765535132
10
-30.278319411394065
20
39.269321959114002
10
-31.721695307893757
20
39.269321959114002
0
LWPOLYLINE
5
292
100
AcDbEntity
8
0
100
AcDbPolyline
90
6
70
1
43
0.0
10
57.839520959562435
20
26.019321765535125
10
57.117833011312584
20
27.269321959114002
10
55.674457114812881
20
27.269321959114002
10
54.952769166563044
20
26.019321765535125
10
55.674457114812895
20
24.769321571956255
10
57.117833011312584
20
24.769321571956255
0
LWPOLYLINE
5
293
100
AcDbEntity
8
0
100
AcDbPolyline
90
6
70
1
43
0.0
10
57.839520959562435
20
29.019321765535125
10
57.117833011312584
20
30.269321959113999
10
55.674457114812881
20
30.269321959113999
10
54.952769166563044
20
29.019321765535121
10
55.674457114812895
20
27.769321571956255
10
57.117833011312584
20
27.769321571956255
0
LWPOLYLINE
5
294
100
AcDbEntity
8
0
100
AcDbPolyline
90
6
70
1
43
0.0
10
57.839520959562435
20
32.019321765535132
10
57.117833011312584
20
33.269321959113995
10
55.674457114812881
20
33.269321959113995
10
54.952769166563044
20
32.019321765535118
10
55.674457114812895
20
30.769321571956251
10
57.117833011312584
20
30.769321571956251
0
LWPOLYLINE
5
295
100
AcDbEntity
8
0
100
AcDbPolyline
90
6
70
1
43
0.0
10
57.839520959562435
20
35.019321765535125
10
57.117833011312584
20
36.269321959114002
10
55.674457114812881
20
36.269321959114002
10
54.952769166563044
20
35.019321765535125
10
55.674457114812895
20
33.769321571956255
10
57.117833011312584
20
33.769321571956255
0
LWPOLYLINE
5
296
100
AcDbEntity
8
0
100
AcDbPolyline
90
6
70
1
43
0.0
10
57.839520959562435
20
38.019321765535125
10
57.117833011312584
20
39.269321959113995
10
55.674457114812881
20
39.269321959113995
10
54.952769166563044
20
38.019321765535125
10
55.674457114812895
20
36.769321571956255
10
57.117833011312584
20
36.769321571956255
0
LWPOLYLINE
5
297
100
AcDbEntity
8
0
100
AcDbPolyline
90
6
70
1
43
0.0
10
60.441444748209108
20
39.519321765535125
10
59.719756799959271
20
40.769321959114002
10
58.276380903459568
20
40.769321959114002
10
57.554692955209731
20
39.519321765535125
10
58.276380903459568
20
38.269321571956255
10
59.719756799959271
20
38.269321571956255
0
LWPOLYLINE
5
298
100
AcDbEntity
8
0
100
AcDbPolyline
90
6
70
1
43
0.0
10
60.441444748209108
20
36.519321765535125
10
59.719756799959271
20
37.769321959114002
10
58.276380903459568
20
37.769321959114002
10
57.554692955209731
20
36.519321765535125
10
58.276380903459568
20
35.269321571956255
10
59.719756799959271
20
35.269321571956255
0
LWPOLYLINE
5
299
100
AcDbEntity
8
0
100
AcDbPolyline
90
6
70
1
43
0.0
10
60.441444748209108
20
33.519321765535125
10
59.719756799959271
20
34.769321959113995
10
58.276380903459568
20
34.769321959113995
10
57.554692955209731
20
33.519321765535118
10
58.276380903459568
20
32.269321571956255
10
59.719756799959271
20
32.269321571956255
0
LWPOLYLINE
5
300
100
AcDbEntity
8
0
100
AcDbPolyline
90
6
70
1
43
0.0
10
60.441444748209108
20
30.519321765535132
10
59.719756799959271
20
31.769321959113999
10
58.276380903459568
20
31.769321959113999
10
57.554692955209731
20
30.519321765535121
10
58.276380903459568
20
29.269321571956255
10
59.719756799959271
20
29.269321571956255
0
LWPOLYLINE
5
301
100
AcDbEntity
8
0
100
AcDbPolyline
90
6
70
1
43
0.0
10
60.441444748209108
20
27.519321765535125
10
59.719756799959271
20
28.769321959114002
10
58.276380903459568
20
28.769321959114002
10
57.554692955209731
20
27.519321765535125
10
58.276380903459568
20
26.269321571956255
10
59.719756799959271
20
26.269321571956255
0
LWPOLYLINE
5
302
100
AcDbEntity
8
0
100
AcDbPolyline
90
6
70
1
43
0.0
10
60.441444748209108
20
24.519321765535125
10
59.719756799959271
20
25.769321959114002
10
58.276380903459568
20
25.769321959114002
10
57.554692955209731
20
24.519321765535125
10
58.276380903459568
20
23.269321571956255
10
59.719756799959271
20
23.269321571956255
0
ENDSEC
0
SECTION
2
OBJECTS
0
DICTIONARY
5
C
100
AcDbDictionary
3
ACAD_GROUP
350
D
3
ACAD_MLINESTYLE
350
17
0
DICTIONARY
5
D
100
AcDbDictionary
0
DICTIONARY
5
1A
330
C
100
AcDbDictionary
0
DICTIONARY
5
17
100
AcDbDictionary
0
ENDSEC
0
EOF
